<svg width="569" height="450" viewBox="0 0 569 450" fill="none" xmlns="http://www.w3.org/2000/svg">
<path d="M407.247 2.91691C426.73 15.2517 417.709 73.3823 452.241 113.912C486.773 154.441 564.21 176.659 568.148 199.198C571.615 221.841 501.022 244.5 459.356 297.852C417.779 351.61 405.039 435.654 371.702 448.045C338.926 460.738 285.465 401.371 248.809 357.903C212.065 314.028 191.183 286.257 143.551 255.823C95.3591 225.087 19.9448 191.79 3.88008 147.65C-12.1846 103.511 30.5404 48.2255 88.6477 31.6981C146.195 14.8677 218.565 36.492 278.979 30.5221C339.394 24.5523 387.293 -9.31488 407.247 2.91691Z" fill="#DBDFE2" fill-opacity="0.5"/>
</svg>
