<svg width="538" height="639" viewBox="0 0 538 639" fill="none" xmlns="http://www.w3.org/2000/svg">
<path d="M-38.8578 4.62827C-66.4831 22.1178 -53.6912 104.542 -102.655 162.008C-151.618 219.475 -261.416 250.979 -267 282.937C-271.916 315.042 -171.822 347.171 -112.743 422.819C-53.7905 499.043 -35.7264 618.21 11.5413 635.778C58.015 653.777 133.818 569.6 185.792 507.965C237.893 445.755 267.501 406.379 335.039 363.226C403.371 319.644 510.301 272.432 533.08 209.847C555.858 147.261 495.278 68.8716 412.887 45.4374C331.29 21.5734 228.677 52.2347 143.014 43.7699C57.3523 35.3052 -10.5644 -12.7153 -38.8578 4.62827Z" fill="#DBDFE2" fill-opacity="0.15"/>
</svg>
