<svg width="170" height="46" viewBox="0 0 170 46" fill="none" xmlns="http://www.w3.org/2000/svg">
<path d="M11.688 16.272C13.96 16.336 15.768 17.112 17.112 18.6C18.456 20.088 19.104 21.984 19.056 24.288C19.008 26.816 18.392 28.96 17.208 30.72C16.024 32.48 14.424 33.312 12.408 33.216C10.664 33.136 9.176 32.568 7.944 31.512C7.128 32.632 6.064 33.208 4.752 33.24C3.696 33.256 2.896 33.024 2.352 32.544C1.808 32.048 1.568 31.44 1.632 30.72C1.712 29.872 2.064 29.248 2.688 28.848C3.328 28.432 4.064 28.28 4.896 28.392C5.728 28.488 6.504 28.792 7.224 29.304C7.464 28.664 7.824 27.496 8.304 25.8C8.784 24.088 9.248 22.688 9.696 21.6C10.16 20.496 10.696 19.696 11.304 19.2C11.496 19.088 11.712 19.048 11.952 19.08C12.192 19.096 12.392 19.176 12.552 19.32C12.712 19.464 12.752 19.608 12.672 19.752C12.08 20.408 11.544 21.432 11.064 22.824C10.584 24.2 10.136 25.632 9.72 27.12C9.32 28.608 8.952 29.656 8.616 30.264C9.096 30.68 9.712 31.032 10.464 31.32C11.216 31.592 11.92 31.728 12.576 31.728C13.504 31.712 14.312 31.352 15 30.648C15.704 29.928 16.224 29.016 16.56 27.912C16.896 26.808 17.072 25.6 17.088 24.288C17.12 22.368 16.656 20.8 15.696 19.584C14.752 18.352 13.304 17.736 11.352 17.736C10.504 17.736 9.696 17.928 8.928 18.312C8.176 18.696 7.592 19.184 7.176 19.776C6.776 20.368 6.536 21.024 6.456 21.744C6.376 22.448 6.592 23.136 7.104 23.808C7.232 24.016 7.12 24.264 6.768 24.552C6.432 24.824 6.12 24.864 5.832 24.672C4.952 23.872 4.512 22.92 4.512 21.816C4.512 20.696 4.896 19.672 5.664 18.744C6.32 17.944 7.176 17.328 8.232 16.896C9.304 16.448 10.456 16.24 11.688 16.272ZM4.848 29.64C4.272 29.592 3.84 29.752 3.552 30.12C3.28 30.488 3.248 30.872 3.456 31.272C3.68 31.672 4.104 31.872 4.728 31.872C5.144 31.872 5.496 31.76 5.784 31.536C6.072 31.296 6.392 30.936 6.744 30.456C6.04 29.96 5.408 29.688 4.848 29.64ZM21.009 28.8C20.945 28.864 20.849 28.888 20.721 28.872C20.593 28.84 20.473 28.776 20.361 28.68C20.249 28.584 20.217 28.496 20.265 28.416C21.049 26.704 21.697 24.872 22.209 22.92C21.569 22.024 21.473 21.288 21.921 20.712C22.209 20.344 22.561 20.216 22.977 20.328C23.505 20.488 23.729 20.976 23.649 21.792C23.617 21.936 23.585 22.088 23.553 22.248C23.713 22.424 23.937 22.656 24.225 22.944C24.513 23.232 24.753 23.48 24.945 23.688C25.153 23.896 25.369 24.136 25.593 24.408C25.817 24.68 25.977 24.928 26.073 25.152C26.185 25.36 26.233 25.584 26.217 25.824C26.217 26.064 26.137 26.288 25.977 26.496C24.681 28.096 24.033 29.424 24.033 30.48C24.033 31.36 24.401 31.8 25.137 31.8C25.825 31.832 26.569 31.48 27.369 30.744C28.185 30.008 28.897 28.912 29.505 27.456C29.553 27.392 29.641 27.376 29.769 27.408C29.897 27.44 30.017 27.512 30.129 27.624C30.241 27.72 30.281 27.816 30.249 27.912C28.713 31.512 26.801 33.28 24.513 33.216C23.697 33.2 23.073 32.952 22.641 32.472C22.209 31.976 21.993 31.352 21.993 30.6C21.977 29.48 22.641 27.96 23.985 26.04C24.097 25.88 24.161 25.712 24.177 25.536C24.193 25.36 24.137 25.176 24.009 24.984C23.897 24.776 23.801 24.616 23.721 24.504C23.641 24.392 23.489 24.224 23.265 24C23.057 23.76 22.937 23.616 22.905 23.568C22.425 25.424 21.793 27.168 21.009 28.8ZM35.0529 22.8C36.3489 22.768 37.2609 23.184 37.7889 24.048C38.3329 24.912 38.5089 25.944 38.3169 27.144C38.1249 28.344 37.6929 29.504 37.0209 30.624C38.6209 30.784 39.8769 29.728 40.7889 27.456C40.8369 27.392 40.9249 27.376 41.0529 27.408C41.1969 27.424 41.3249 27.488 41.4369 27.6C41.5489 27.696 41.5809 27.8 41.5329 27.912C40.2849 30.856 38.5329 32.04 36.2769 31.464C35.2049 32.632 33.9249 33.216 32.4369 33.216C31.3009 33.216 30.4129 32.84 29.7729 32.088C29.1329 31.336 28.9569 30.152 29.2449 28.536C29.5169 26.936 30.2049 25.592 31.3089 24.504C32.4129 23.416 33.6609 22.848 35.0529 22.8ZM34.8609 24.216C34.0449 24.264 33.2849 24.752 32.5809 25.68C31.8929 26.608 31.4609 27.584 31.2849 28.608C30.9489 30.752 31.4369 31.824 32.7489 31.824C33.4849 31.824 34.1729 31.464 34.8129 30.744C34.5729 30.408 34.5569 30.08 34.7649 29.76C34.9889 29.44 35.2529 29.344 35.5569 29.472C35.8449 28.864 36.0609 28.256 36.2049 27.648C36.3649 27.024 36.4369 26.448 36.4209 25.92C36.4209 25.392 36.2849 24.968 36.0129 24.648C35.7569 24.328 35.3729 24.184 34.8609 24.216ZM43.8544 33.24C43.0224 33.224 42.3664 32.904 41.8864 32.28C41.4064 31.656 41.2864 30.848 41.5264 29.856C41.6224 29.584 41.8384 29.44 42.1744 29.424C42.5264 29.392 42.7184 29.472 42.7504 29.664C42.6064 30.336 42.6544 30.864 42.8944 31.248C43.1504 31.632 43.5184 31.824 43.9984 31.824C44.6384 31.792 45.1104 31.52 45.4144 31.008C45.0944 30.752 44.9904 30.416 45.1024 30C45.2304 29.584 45.4624 29.4 45.7984 29.448C45.8304 28.904 45.6064 27.944 45.1264 26.568C44.6464 25.192 44.4064 24.12 44.4064 23.352C43.3984 24.344 42.3024 26.16 41.1184 28.8C41.0544 28.88 40.9584 28.912 40.8304 28.896C40.7184 28.864 40.6064 28.8 40.4944 28.704C40.3824 28.592 40.3424 28.496 40.3744 28.416C41.6384 25.456 42.8864 23.448 44.1184 22.392C44.7584 21.816 45.3584 21.64 45.9184 21.864C46.3184 22.024 46.4544 22.304 46.3264 22.704C46.2944 22.848 46.2144 22.992 46.0864 23.136C46.1344 23.824 46.2704 24.544 46.4944 25.296C46.7344 26.048 46.9504 26.664 47.1424 27.144C47.3344 27.608 47.4864 28.184 47.5984 28.872C47.7104 29.544 47.6704 30.144 47.4784 30.672C48.8704 30.672 50.0064 29.6 50.8864 27.456C50.9344 27.392 51.0224 27.376 51.1504 27.408C51.2784 27.424 51.3984 27.488 51.5104 27.6C51.6224 27.712 51.6544 27.816 51.6064 27.912C50.5184 30.52 49.0064 31.76 47.0704 31.632C46.7344 32.144 46.2784 32.544 45.7024 32.832C45.1264 33.12 44.5104 33.256 43.8544 33.24ZM114.545 16.608C114.753 16.304 115.129 16.2 115.673 16.296C116.217 16.376 116.473 16.584 116.441 16.92C116.249 17.512 115.409 20.504 113.921 25.896C114.033 25.912 114.537 26.008 115.433 26.184C116.345 26.36 117.073 26.464 117.617 26.496C117.729 26.048 117.913 25.304 118.169 24.264C118.425 23.224 118.633 22.384 118.793 21.744C118.969 21.104 119.193 20.352 119.465 19.488C119.753 18.624 120.041 17.872 120.329 17.232C120.473 17.008 120.817 16.976 121.361 17.136C121.921 17.28 122.193 17.48 122.177 17.736C121.905 18.296 121.633 18.992 121.361 19.824C121.105 20.64 120.905 21.312 120.761 21.84C120.617 22.368 120.401 23.208 120.113 24.36C119.841 25.512 119.665 26.232 119.585 26.52C121.041 26.36 122.265 25.792 123.257 24.816C123.465 24.624 123.649 24.648 123.809 24.888C124.001 25.16 123.945 25.456 123.641 25.776C122.441 26.976 120.985 27.648 119.273 27.792C119.129 28.336 118.889 29.184 118.553 30.336C118.217 31.488 117.993 32.28 117.881 32.712C117.753 32.968 117.385 33.072 116.777 33.024C116.169 32.992 115.873 32.832 115.889 32.544C115.889 32.528 116.081 31.896 116.465 30.648C116.849 29.4 117.129 28.44 117.305 27.768C116.777 27.72 116.057 27.616 115.145 27.456C114.233 27.28 113.689 27.176 113.513 27.144C112.953 29.272 112.297 30.824 111.545 31.8C110.809 32.776 109.753 33.256 108.377 33.24C107.081 33.224 106.225 32.856 105.809 32.136C105.409 31.4 105.321 30.536 105.545 29.544C105.785 28.408 106.505 27.44 107.705 26.64C108.921 25.84 110.345 25.528 111.977 25.704C112.297 24.632 112.681 23.28 113.129 21.648C113.593 20 113.913 18.88 114.089 18.288C113.625 18.736 113.089 19.008 112.481 19.104C111.889 19.184 111.193 19.184 110.393 19.104C109.609 19.008 109.025 18.984 108.641 19.032C107.921 19.08 107.353 19.208 106.937 19.416C106.521 19.624 106.281 20.016 106.217 20.592C106.169 20.992 106.289 21.344 106.577 21.648C106.865 21.936 107.225 22.088 107.657 22.104C108.105 22.104 108.569 21.936 109.049 21.6C109.161 21.52 109.289 21.528 109.433 21.624C109.593 21.72 109.697 21.848 109.745 22.008C109.809 22.168 109.801 22.32 109.721 22.464C109.113 23.152 108.313 23.504 107.321 23.52C106.345 23.52 105.609 23.232 105.113 22.656C104.425 21.936 104.193 21.072 104.417 20.064C104.753 18.56 106.017 17.752 108.209 17.64C108.801 17.56 109.545 17.584 110.441 17.712C111.337 17.84 112.097 17.848 112.721 17.736C113.345 17.624 113.953 17.248 114.545 16.608ZM111.665 27.072C110.593 26.96 109.673 27.16 108.905 27.672C108.137 28.184 107.649 28.864 107.441 29.712C107.313 30.304 107.321 30.8 107.465 31.2C107.625 31.584 107.977 31.776 108.521 31.776C109.273 31.792 109.889 31.392 110.369 30.576C110.865 29.76 111.297 28.592 111.665 27.072ZM127.516 22.848C128.3 22.88 128.916 23.112 129.364 23.544C129.828 23.96 130.068 24.448 130.084 25.008C130.116 25.568 130.004 26.144 129.748 26.736C129.268 27.696 128.492 28.352 127.42 28.704C126.348 29.056 125.1 29.04 123.676 28.656C123.548 29.504 123.676 30.216 124.06 30.792C124.46 31.368 125.068 31.712 125.884 31.824C126.524 31.92 127.196 31.864 127.9 31.656C128.604 31.432 129.332 30.96 130.084 30.24C130.836 29.52 131.452 28.592 131.932 27.456C131.98 27.392 132.06 27.376 132.172 27.408C132.3 27.424 132.42 27.488 132.532 27.6C132.644 27.712 132.684 27.816 132.652 27.912C131.164 31.624 128.804 33.4 125.572 33.24C123.956 33.144 122.82 32.544 122.164 31.44C121.524 30.32 121.412 29.024 121.828 27.552C122.244 26.064 122.988 24.888 124.06 24.024C125.132 23.16 126.284 22.768 127.516 22.848ZM127.204 24.216C126.564 24.2 125.908 24.536 125.236 25.224C124.58 25.896 124.124 26.696 123.868 27.624C125.932 28.024 127.284 27.6 127.924 26.352C128.228 25.872 128.324 25.4 128.212 24.936C128.116 24.456 127.78 24.216 127.204 24.216ZM137.115 22.896C137.947 22.752 138.803 22.776 139.683 22.968C140.563 23.16 141.299 23.56 141.891 24.168C142.019 24.328 141.923 24.568 141.603 24.888C141.299 25.208 141.067 25.304 140.907 25.176C139.835 24.36 138.723 24.056 137.571 24.264C136.915 24.376 136.275 24.712 135.651 25.272C135.043 25.816 134.531 26.488 134.115 27.288C133.667 28.104 133.403 28.936 133.323 29.784C133.243 30.632 133.363 31.224 133.683 31.56C134.067 31.96 134.595 31.904 135.267 31.392C135.939 30.88 136.587 30.064 137.211 28.944C137.835 27.824 138.291 26.648 138.579 25.416C138.659 25.24 138.843 25.152 139.131 25.152C139.435 25.152 139.707 25.216 139.947 25.344C140.203 25.472 140.331 25.616 140.331 25.776C139.707 28.048 139.347 29.464 139.251 30.024C139.059 31.144 139.219 31.704 139.731 31.704C140.227 31.704 140.835 31.288 141.555 30.456C142.275 29.624 142.867 28.632 143.331 27.48C143.379 27.4 143.467 27.376 143.595 27.408C143.723 27.424 143.843 27.488 143.955 27.6C144.083 27.696 144.123 27.8 144.075 27.912C142.539 31.336 140.835 33.048 138.963 33.048C138.403 33.048 137.979 32.784 137.691 32.256C137.403 31.712 137.347 31.008 137.523 30.144C136.947 31.104 136.379 31.856 135.819 32.4C135.259 32.928 134.571 33.2 133.755 33.216C132.811 33.248 132.123 32.896 131.691 32.16C131.243 31.424 131.123 30.448 131.331 29.232C131.587 27.76 132.267 26.4 133.371 25.152C134.491 23.888 135.739 23.136 137.115 22.896ZM147.665 16.992C148.385 16.464 149.081 16.296 149.753 16.488C150.425 16.68 150.865 17.16 151.073 17.928C151.297 18.68 151.209 19.672 150.809 20.904C149.785 23.64 147.913 25.728 145.193 27.168C144.553 30.16 144.881 31.72 146.177 31.848C146.673 31.912 147.169 31.808 147.665 31.536C148.161 31.248 148.601 30.856 148.985 30.36C149.369 29.864 149.697 29.384 149.969 28.92C150.257 28.44 150.513 27.952 150.737 27.456C150.785 27.392 150.873 27.376 151.001 27.408C151.129 27.424 151.249 27.488 151.361 27.6C151.473 27.712 151.505 27.816 151.457 27.912C151.057 28.776 150.689 29.496 150.353 30.072C150.033 30.648 149.625 31.224 149.129 31.8C148.649 32.36 148.105 32.76 147.497 33C146.889 33.24 146.217 33.312 145.481 33.216C144.761 33.136 144.201 32.864 143.801 32.4C143.417 31.92 143.193 31.28 143.129 30.48C143.065 29.68 143.089 28.84 143.201 27.96C143.313 27.064 143.513 26.048 143.801 24.912C144.265 23.072 144.833 21.432 145.505 19.992C146.177 18.552 146.897 17.552 147.665 16.992ZM149.153 17.952C148.561 17.904 147.841 18.976 146.993 21.168C146.337 22.896 145.841 24.4 145.505 25.68C146.897 24.592 147.953 23.248 148.673 21.648C149.137 20.592 149.417 19.728 149.513 19.056C149.625 18.368 149.505 18 149.153 17.952ZM153.056 33.24C152.576 33.24 152.16 33.168 151.808 33.024C151.472 32.896 151.208 32.68 151.016 32.376C150.84 32.056 150.696 31.736 150.584 31.416C150.472 31.08 150.432 30.648 150.464 30.12C150.48 29.592 150.504 29.128 150.536 28.728C150.568 28.312 150.656 27.784 150.8 27.144C150.944 26.504 151.056 25.992 151.136 25.608C151.232 25.224 151.368 24.712 151.544 24.072H150.752C150.544 23.944 150.472 23.728 150.536 23.424C150.584 23.104 150.696 22.896 150.872 22.8H151.904C152.48 20.896 153.12 19.056 153.824 17.28C153.952 17.056 154.296 17.008 154.856 17.136C155.432 17.248 155.696 17.432 155.648 17.688C155.2 18.856 154.624 20.56 153.92 22.8H156.224C156.416 22.928 156.48 23.168 156.416 23.52C156.352 23.856 156.24 24.04 156.08 24.072H153.584C153.136 25.64 152.816 26.864 152.624 27.744C152.048 30.448 152.336 31.808 153.488 31.824C154.272 31.84 155.064 31.4 155.864 30.504C156.68 29.608 157.312 28.592 157.76 27.456C157.808 27.392 157.896 27.376 158.024 27.408C158.152 27.424 158.272 27.488 158.384 27.6C158.496 27.712 158.528 27.824 158.48 27.936C157.04 31.424 155.232 33.192 153.056 33.24ZM161.144 16.632C161.272 16.52 161.48 16.464 161.768 16.464C162.072 16.448 162.36 16.512 162.632 16.656C162.904 16.8 163.008 16.96 162.944 17.136C162.448 18.24 161.52 21.112 160.16 25.752C161.568 23.8 162.904 22.816 164.168 22.8C165.064 22.784 165.664 23.096 165.968 23.736C166.272 24.376 166.28 25.208 165.992 26.232C165.224 29.048 164.816 30.6 164.768 30.888C164.672 31.56 164.8 31.888 165.152 31.872C165.664 31.856 166.264 31.416 166.952 30.552C167.656 29.672 168.24 28.64 168.704 27.456C168.752 27.392 168.84 27.376 168.968 27.408C169.096 27.424 169.216 27.488 169.328 27.6C169.44 27.712 169.472 27.816 169.424 27.912C167.92 31.4 166.32 33.176 164.624 33.24C163.808 33.256 163.272 33.048 163.016 32.616C162.76 32.168 162.688 31.528 162.8 30.696C162.848 30.344 163.032 29.576 163.352 28.392C163.688 27.208 163.888 26.464 163.952 26.16C164.048 25.84 164.104 25.568 164.12 25.344C164.152 25.104 164.104 24.888 163.976 24.696C163.864 24.488 163.656 24.384 163.352 24.384C162.856 24.384 162.264 24.704 161.576 25.344C160.904 25.984 160.304 26.736 159.776 27.6C159.328 29.216 158.92 30.912 158.552 32.688C158.52 32.832 158.312 32.944 157.928 33.024C157.56 33.104 157.216 33.104 156.896 33.024C156.576 32.944 156.448 32.776 156.512 32.52C157.136 29.624 157.88 26.696 158.744 23.736C159.608 20.76 160.408 18.392 161.144 16.632Z" fill="#96BEE2"/>
<path d="M64.8989 0.943923C64.8379 1.12825 64.7668 1.91163 64.7364 2.6858C64.6754 4.16963 64.7973 4.90693 65.234 5.83777C65.559 6.54743 66.3207 7.40454 67.1129 7.97595C67.8035 8.47363 69.5606 9.34918 69.8653 9.34918C69.9364 9.34918 69.8043 9.09113 69.5707 8.76856C68.9918 7.96674 67.7324 5.59815 67.3567 4.60279L67.0418 3.77332L67.3465 4.0959C68.4231 5.22028 69.6824 6.86078 70.4035 8.10498C70.8707 8.9068 70.891 8.91602 70.9723 8.65796C71.0129 8.50128 71.0535 7.81928 71.0535 7.13727C71.0535 5.74561 70.9114 5.12812 70.3731 4.10511C69.6621 2.75953 67.5496 1.30336 65.4473 0.722733L65.0207 0.602921L64.8989 0.943923Z" fill="#96BEE2"/>
<path d="M90.208 0.833328C87.3846 1.81947 85.7697 3.23878 85.1502 5.30323C84.9572 5.93915 84.8963 8.13263 85.0486 8.65796C85.1299 8.91602 85.1502 8.9068 85.6174 8.10498C86.3385 6.86078 87.5979 5.22028 88.6744 4.0959L88.9791 3.77333L88.6643 4.60279C88.2885 5.59815 87.0291 7.96674 86.4502 8.76856C86.2166 9.09113 86.0846 9.34918 86.1557 9.34918C86.4604 9.34918 88.2174 8.47363 88.908 7.97595C90.6041 6.75019 91.3455 5.24793 91.3252 3.05445C91.3252 2.4554 91.2947 1.81026 91.2541 1.62593C91.1525 1.0453 91.0104 0.593705 90.9291 0.593705C90.8885 0.602921 90.5635 0.7043 90.208 0.833328Z" fill="#96BEE2"/>
<path d="M77.4417 4.02217C76.4058 5.23872 75.8878 6.55665 76.0097 7.72712C76.091 8.50129 76.3956 9.20172 77.0253 10.0588L77.5535 10.7777L77.6144 9.34918C77.6753 7.87458 77.8683 6.39997 78.0105 6.39997C78.1527 6.39997 78.3456 7.87458 78.4066 9.34918L78.4675 10.7777L78.9956 10.0588C80.1941 8.41834 80.3464 6.9806 79.4831 5.3401C79.1581 4.72261 78.173 3.45076 78.0105 3.45076C77.9699 3.45076 77.716 3.70881 77.4417 4.02217Z" fill="#96BEE2"/>
<path d="M72.1191 12.6118C72.1191 13.3951 72.2207 13.7085 72.6066 14.0864C72.9012 14.3721 73.5715 14.7868 73.7441 14.7868C73.7949 14.7868 73.7137 14.5933 73.5613 14.3444C73.2973 13.9481 72.9316 13.2016 72.9316 13.0726C72.9316 12.9712 73.4598 13.5979 73.7949 14.1048C74.2012 14.7039 74.323 14.6301 74.2113 13.8467C74.0895 12.9988 73.673 12.5012 72.759 12.0772C72.1699 11.8099 72.1191 11.856 72.1191 12.6118Z" fill="#96BEE2"/>
<path d="M83.0885 12.1694C82.4892 12.4827 82.2963 12.6486 82.0728 13.0357C81.8494 13.4228 81.7174 14.1417 81.8189 14.4182C81.8799 14.584 81.9306 14.5472 82.2353 14.0956C82.6111 13.5242 83.0885 12.9712 83.0885 13.1094C83.0885 13.2477 82.6721 14.0587 82.408 14.4366C82.1135 14.8698 82.2658 14.8882 82.8955 14.5011C83.6572 14.0219 83.84 13.6901 83.8806 12.7408C83.9314 11.8007 83.8705 11.7639 83.0885 12.1694Z" fill="#96BEE2"/>
<path d="M61.8308 12.1141C61.5566 12.1602 61.3128 12.2154 61.2722 12.2431C61.1808 12.3353 61.7698 13.5979 62.1862 14.197C62.9073 15.2384 63.9026 15.9112 65.1823 16.2153C65.7816 16.3536 67.0003 16.3996 67.6808 16.289L68.0667 16.2338L67.3456 15.8835C66.1167 15.2753 63.9026 13.8283 64.0347 13.7085C64.1667 13.5795 67.0308 14.7868 68.1378 15.4412L68.4628 15.6347L68.3612 15.3766C67.6605 13.7085 66.3503 12.538 64.7558 12.1602C64.1159 12.0127 62.6636 11.9943 61.8308 12.1141Z" fill="#96BEE2"/>
<path d="M91.223 12.1694C89.6691 12.5472 88.3488 13.7361 87.6582 15.3766L87.5566 15.6347L87.8816 15.4412C88.9379 14.8144 90.9793 13.9297 91.8223 13.7361C92.4418 13.5887 90.1465 15.1555 88.684 15.8743L87.9527 16.2338L88.4301 16.2983C91.3246 16.6577 93.4168 15.5149 94.5137 12.962C94.666 12.6025 94.7777 12.28 94.7473 12.2523C94.6355 12.1417 93.4574 12.0219 92.6348 12.0311C92.1574 12.0311 91.5277 12.0956 91.223 12.1694Z" fill="#96BEE2"/>
<path d="M84.287 14.6486C84.4089 15.7084 84.3378 17.9941 84.1652 18.9802C83.6878 21.6069 82.4487 24.4363 80.7831 26.7035C79.9909 27.7726 79.0566 28.8877 78.9347 28.8877C78.8941 28.8877 78.7823 28.7495 78.6706 28.5928C78.5691 28.4269 78.0105 27.7357 77.4417 27.0445C73.8769 22.7589 69.4081 19.5701 64.9089 18.1047C63.9542 17.7913 63.9441 17.7821 65.3659 18.8051C69.8042 22.0032 72.9323 26.1044 74.1003 30.2517C74.8925 33.0904 74.9636 35.8737 74.3034 38.8966C73.9581 40.445 73.1558 42.62 72.4448 43.9379L71.8456 45.0162H74.4659H77.0761L77.2792 44.7121C77.3909 44.5554 77.9089 43.6522 78.437 42.7122C81.8495 36.6294 84.2058 30.2978 85.1198 24.7865C85.3941 23.1275 85.5058 19.8465 85.3331 18.3627C85.1909 17.1462 84.8152 15.5333 84.4597 14.6393L84.2159 14.0034L84.287 14.6486Z" fill="#96BEE2"/>
<path d="M76.2431 18.0125C75.6337 18.2337 75.0751 18.7037 74.7501 19.2843C74.4251 19.865 74.3642 21.0723 74.6079 21.8557C75.39 24.3349 78.2947 25.5514 80.0314 24.1321C81.4837 22.9524 81.3517 20.5562 79.7572 18.9986C79.1681 18.4364 78.7111 18.16 78.0103 17.9756C77.3095 17.7821 76.8626 17.7913 76.2431 18.0125Z" fill="#96BEE2"/>
<path d="M56.1742 18.759C55.1688 19.0079 53.818 19.6622 52.8125 20.3903L52 20.9801L52.2336 21.2106C53.3 22.2612 55.5242 23.2842 57.1594 23.4962C58.6422 23.6805 60.7953 23.0169 62.4102 21.8649L62.9078 21.5147H61.1813C59.3938 21.5147 57.6977 21.3672 56.4078 21.0907L56.1234 21.0262L56.4789 20.9525C57.5656 20.7221 59.343 20.5654 61.0188 20.5562C62.0445 20.5562 62.8773 20.5378 62.8773 20.5285C62.8773 20.4456 61.425 19.5701 60.8055 19.2843C59.2414 18.5747 57.6875 18.3904 56.1742 18.759Z" fill="#96BEE2"/>
<path d="M96.7381 18.7498C95.8342 18.9618 94.6053 19.5148 93.7826 20.0862C93.4271 20.3258 93.1428 20.5378 93.1428 20.5562C93.1428 20.5838 93.5186 20.5746 93.9857 20.5378C95.3975 20.4364 100.13 20.8603 99.724 21.0539C99.5717 21.1368 98.6068 21.2843 97.4084 21.4225C96.9311 21.4778 95.7732 21.5147 94.8287 21.5147L93.1123 21.5239L93.7521 21.9755C94.5443 22.5285 95.8443 23.1183 96.7076 23.3211C97.6014 23.5331 99.0232 23.5331 99.8459 23.3119C101.085 22.9985 102.497 22.2704 103.512 21.441L104.02 21.0262L103.583 20.676C102.456 19.7728 100.892 18.9986 99.6326 18.7129C98.7693 18.5194 97.642 18.5286 96.7381 18.7498Z" fill="#96BEE2"/>
<path d="M86.998 20.335C86.8355 20.3903 86.5309 20.5378 86.3379 20.6576L85.9824 20.8695L86.6934 20.8788C87.577 20.8788 88.3082 20.9894 88.0137 21.0723C87.902 21.1092 87.4246 21.1645 86.9574 21.1921L86.1043 21.2566L86.348 21.4317C86.7238 21.699 87.6176 21.911 88.0441 21.8373C88.4402 21.7727 88.9887 21.5331 89.3848 21.2474C89.6285 21.0723 89.6285 21.0631 89.4457 20.8788C88.9176 20.3442 87.7598 20.0954 86.998 20.335Z" fill="#96BEE2"/>
<path d="M65 25.8832C63.4969 26.2611 62.2477 27.3947 61.5164 29.0536C61.3133 29.5144 61.2523 29.7541 61.3234 29.8186C61.3742 29.8647 61.8617 29.9568 62.4 30.0121C65 30.2886 66.8891 29.3854 68.0266 27.321C68.2602 26.897 68.443 26.5284 68.4227 26.5099C68.3922 26.4915 68.118 26.6205 67.8133 26.8048C66.8484 27.367 65.0914 28.1136 64.0961 28.3808C63.507 28.5467 65.7414 27.0168 67.2039 26.2611C67.7523 25.9846 67.925 25.8556 67.8031 25.8095C67.5086 25.7081 65.4875 25.7634 65 25.8832Z" fill="#96BEE2"/>
<path d="M88.1356 25.8187C88.095 25.8463 88.4098 26.0583 88.8364 26.2703C89.9739 26.8601 92.1879 28.3071 92.0864 28.3993C91.9544 28.5191 89.3239 27.4408 88.2879 26.8509C87.9325 26.6482 87.6176 26.4915 87.5973 26.5099C87.577 26.5284 87.7497 26.8878 87.9934 27.3117C89.1715 29.4223 91.1419 30.3439 93.7825 29.9937C94.2801 29.9292 94.7067 29.8278 94.727 29.7725C94.7981 29.6158 94.1481 28.261 93.7825 27.7726C93.0411 26.8048 92.0661 26.1413 90.9692 25.8832C90.4411 25.7542 88.2575 25.6989 88.1356 25.8187Z" fill="#96BEE2"/>
<path d="M69.1637 32.9798C66.8989 33.8737 65.4262 35.3115 64.8981 37.1547C64.6036 38.187 64.6137 39.9565 64.9286 41.0809C65.02 41.4219 65.0403 41.4311 65.345 41.3666C65.934 41.256 67.1934 40.7214 67.9653 40.2698C70.22 38.9519 71.2051 37.1179 71.0731 34.4912C71.0426 33.9014 70.9919 33.3668 70.9512 33.3115C70.9106 33.247 70.7176 33.4774 70.4739 33.883C69.6512 35.2654 68.4122 36.8875 67.4575 37.8275L67.0411 38.2423L67.3356 37.505C67.9551 35.9566 68.7981 34.3806 69.4786 33.4498C69.7731 33.0535 70.0169 32.6664 69.9661 32.6664C69.9458 32.6664 69.5903 32.8046 69.1637 32.9798Z" fill="#96BEE2"/>
<path d="M86.2465 33.0074C86.3684 33.2009 86.5512 33.459 86.6426 33.588C87.2621 34.4359 88.3387 36.5188 88.7855 37.7354L88.9785 38.2423L88.552 37.8275C87.6277 36.9059 86.5309 35.4682 85.6574 34.0488C85.0074 32.9798 84.9668 33.0258 84.9668 34.8783C84.9668 35.9105 85.0176 36.3529 85.1598 36.8137C85.5762 38.104 86.1957 38.9427 87.3637 39.7906C88.4301 40.574 90.5832 41.5233 90.959 41.385C91.1418 41.3297 91.3348 40.0302 91.3449 38.8874C91.3449 37.0349 90.7965 35.7723 89.4355 34.5557C88.6129 33.8092 87.648 33.2378 86.5613 32.8507L86.0129 32.6664L86.2465 33.0074Z" fill="#96BEE2"/>
</svg>
